<svg width="495" height="623" fill="none" xmlns="http://www.w3.org/2000/svg" aria-hidden="true"><path fill-rule="evenodd" clip-rule="evenodd" d="M167.19 364.254C83.479 364.254 0 404.819 0 404.819S141.781 19.488 142.087 18.729C146.434 7.337 153.027 0 162.289 0h170.152c9.262 0 16.133 7.337 20.202 18.73.277.772 142.073 386.089 142.073 386.089s-68.046-40.565-167.191-40.565L264.41 169.408c-2.363-9.423-9.263-15.827-17.052-15.827s-14.689 6.404-17.052 15.827L167.19 364.254zm-6.321 165.918l.025.023-.027-.014.002-.009zm-24.651-118.824c-11.742 39.119-3.52 93.11 24.651 118.824.128-.476.256-.93.379-1.368.254-.897.489-1.731.669-2.571 3.529-16.338 16.837-26.713 33.66-26.223 16.392.477 25.093 8.755 27.625 27.244.939 6.866 1.028 13.877 1.117 20.851l.028 2.186c.216 15.807 4.31 30.416 12.917 43.623 8.149 12.512 18.844 22.029 33.485 28.564l-.399-1.352c-.305-1.04-.478-1.627-.665-2.215-10.776-32.976-3.017-55.645 25.659-74.978a919.281 919.281 0 018.776-5.821c6.471-4.258 12.939-8.513 19.159-13.105 22.601-16.678 36.811-38.68 40.152-67.163 1.374-11.696.35-23.187-3.583-34.569-1.672 1.012-3.261 2.02-4.806 3-3.298 2.091-6.395 4.055-9.66 5.659-41.916 20.573-86.23 23.119-131.352 16.311-29.228-4.411-57.446-12.226-77.812-36.897z" fill="url(#prefix__paint0_linear_1805_24383)"/><defs><linearGradient id="prefix__paint0_linear_1805_24383" x1="247.358" y1="0" x2="247.358" y2="622.479" gradientUnits="userSpaceOnUse"><stop stop-opacity=".9"/><stop offset="1" stop-opacity=".2"/></linearGradient></defs></svg>